<?xml version="1.0" encoding="UTF-8" standalone="no"?>
<!-- Created with Inkscape (http://www.inkscape.org/) -->

<svg
   width="388.29999mm"
   height="553.29999mm"
   viewBox="0 0 388.29999 553.29999"
   version="1.1"
   id="svg1"
   inkscape:version="1.4 (86a8ad7, 2024-10-11)"
   sodipodi:docname="Bordspil_box(235x400).svg"
   xmlns:inkscape="http://www.inkscape.org/namespaces/inkscape"
   xmlns:sodipodi="http://sodipodi.sourceforge.net/DTD/sodipodi-0.dtd"
   xmlns="http://www.w3.org/2000/svg"
   xmlns:svg="http://www.w3.org/2000/svg">
  <sodipodi:namedview
     id="namedview1"
     pagecolor="#ffffff"
     bordercolor="#000000"
     borderopacity="0.25"
     inkscape:showpageshadow="2"
     inkscape:pageopacity="0.0"
     inkscape:pagecheckerboard="0"
     inkscape:deskcolor="#d1d1d1"
     inkscape:document-units="mm"
     inkscape:zoom="0.36302259"
     inkscape:cx="1205.1592"
     inkscape:cy="1061.9174"
     inkscape:window-width="1920"
     inkscape:window-height="1017"
     inkscape:window-x="-8"
     inkscape:window-y="-8"
     inkscape:window-maximized="1"
     inkscape:current-layer="layer1"
     showguides="true" />
  <defs
     id="defs1" />
  <g
     inkscape:label="Layer 1"
     inkscape:groupmode="layer"
     id="layer1"
     transform="translate(-0.5,-0.5)">
    <g
       id="panel4773">
      <path
         style="fill:none;stroke:#000000;stroke-width:1"
         d="m 77.1,480.7 h 26.97 v -2.5 h 25.1 v 2.5 h 26.92 v -2.5 h 25.1 v 2.5 h 26.92 v -2.5 h 25.1 v 2.5 h 26.92 v -2.5 h 25.1 v 2.5 h 26.97"
         id="path1" />
      <path
         style="fill:none;stroke:#000000;stroke-width:1"
         d="m 312.2,480.7 v 22.6 h -2.5 v 24.9 h 2.5 v 22.6"
         id="path2" />
      <path
         style="fill:none;stroke:#000000;stroke-width:1"
         d="m 312.2,550.8 h -26.97 v 2.5 h -25.1 v -2.5 h -26.92 v 2.5 h -25.1 v -2.5 h -26.92 v 2.5 h -25.1 v -2.5 h -26.92 v 2.5 h -25.1 v -2.5 H 77.1"
         id="path3" />
      <path
         style="fill:none;stroke:#000000;stroke-width:1"
         d="m 77.1,550.8 v -22.6 h 2.5 v -24.9 h -2.5 v -22.6"
         id="path4" />
    </g>
    <g
       id="panel2122">
      <path
         style="fill:none;stroke:#000000;stroke-width:1"
         d="M 3.5,79.6 H 26 v -2.5 h 25.1 v 2.5 h 22.5"
         id="path5" />
      <path
         style="fill:none;stroke:#000000;stroke-width:1"
         d="m 73.6,79.6 v 25.587 h 2.5 v 25.1 h -2.5 v 28.038 h 2.5 v 25.1 h -2.5 v 28.037 h 2.5 v 25.1 H 73.6 V 264.6 h 2.5 v 25.1 h -2.5 v 28.037 h 2.5 v 25.1 h -2.5 v 28.038 h 2.5 v 25.1 h -2.5 v 28.038 h 2.5 v 25.1 H 73.6 V 474.7"
         id="path6" />
      <path
         style="fill:none;stroke:#000000;stroke-width:1"
         d="M 73.6,474.7 H 51.1 v 2.5 H 26 v -2.5 H 3.5"
         id="path7" />
      <path
         style="fill:none;stroke:#000000;stroke-width:1"
         d="M 3.5,474.7 V 449.112 H 1 v -25.1 H 3.5 V 395.975 H 1 v -25.1 H 3.5 V 342.837 H 1 v -25.1 H 3.5 V 289.7 H 1 V 264.6 H 3.5 V 236.562 H 1 v -25.1 H 3.5 V 183.425 H 1 v -25.1 H 3.5 V 130.287 H 1 v -25.1 H 3.5 V 79.6"
         id="path8" />
    </g>
    <g
       id="panel9762">
      <path
         style="fill:none;stroke:#000000;stroke-width:1"
         d="m 77.1,77.1 h 27.07 v 2.5 h 24.9 v -2.5 h 27.12 v 2.5 h 24.9 v -2.5 h 27.12 v 2.5 h 24.9 v -2.5 h 27.12 v 2.5 h 24.9 v -2.5 h 27.07"
         id="path9" />
      <path
         style="fill:none;stroke:#000000;stroke-width:1"
         d="m 312.2,77.1 v 28.187 h -2.5 v 24.901 h 2.5 v 28.237 h -2.5 v 24.9 h 2.5 v 28.237 h -2.5 v 24.901 h 2.5 V 264.7 h -2.5 v 24.9 h 2.5 v 28.237 h -2.5 v 24.9 h 2.5 v 28.238 h -2.5 v 24.9 h 2.5 v 28.237 h -2.5 v 24.9 h 2.5 V 477.2"
         id="path10" />
      <path
         style="fill:none;stroke:#000000;stroke-width:1"
         d="m 312.2,477.2 h -27.07 v -2.5 h -24.9 v 2.5 h -27.12 v -2.5 h -24.9 v 2.5 h -27.12 v -2.5 h -24.9 v 2.5 h -27.12 v -2.5 h -24.9 v 2.5 H 77.1"
         id="path11" />
      <path
         style="fill:none;stroke:#000000;stroke-width:1"
         d="m 77.1,477.2 v -28.188 h 2.5 v -24.9 h -2.5 v -28.237 h 2.5 v -24.9 h -2.5 v -28.238 h 2.5 v -24.9 H 77.1 V 289.6 h 2.5 v -24.9 h -2.5 v -28.238 h 2.5 v -24.9 h -2.5 v -28.237 h 2.5 v -24.9 h -2.5 v -28.237 h 2.5 V 105.287 H 77.1 V 77.1"
         id="path12" />
    </g>
    <g
       id="panel4412">
      <path
         style="fill:none;stroke:#000000;stroke-width:1"
         d="m 315.7,79.6 h 22.5 v -2.5 h 25.1 v 2.5 h 22.5"
         id="path13" />
      <path
         style="fill:none;stroke:#000000;stroke-width:1"
         d="m 385.8,79.6 v 25.587 h 2.5 v 25.1 h -2.5 v 28.038 h 2.5 v 25.1 h -2.5 v 28.037 h 2.5 v 25.1 h -2.5 V 264.6 h 2.5 v 25.1 h -2.5 v 28.037 h 2.5 v 25.1 h -2.5 v 28.038 h 2.5 v 25.1 h -2.5 v 28.038 h 2.5 v 25.1 h -2.5 V 474.7"
         id="path14" />
      <path
         style="fill:none;stroke:#000000;stroke-width:1"
         d="m 385.8,474.7 h -22.5 v 2.5 h -25.1 v -2.5 h -22.5"
         id="path15" />
      <path
         style="fill:none;stroke:#000000;stroke-width:1"
         d="m 315.7,474.7 v -25.588 h -2.5 v -25.1 h 2.5 v -28.037 h -2.5 v -25.1 h 2.5 v -28.038 h -2.5 v -25.1 h 2.5 V 289.7 h -2.5 v -25.1 h 2.5 v -28.038 h -2.5 v -25.1 h 2.5 v -28.037 h -2.5 v -25.1 h 2.5 v -28.038 h -2.5 v -25.1 h 2.5 V 79.6"
         id="path16" />
    </g>
    <g
       id="panel3831">
      <path
         style="fill:none;stroke:#000000;stroke-width:1"
         d="m 77.1,3.5 h 26.97 V 1 h 25.1 v 2.5 h 26.92 V 1 h 25.1 v 2.5 h 26.92 V 1 h 25.1 v 2.5 h 26.92 V 1 h 25.1 v 2.5 h 26.97"
         id="path21" />
      <path
         style="fill:none;stroke:#000000;stroke-width:1"
         d="m 312.2,3.5 v 22.6 h -2.5 V 51 h 2.5 v 22.6"
         id="path22" />
      <path
         style="fill:none;stroke:#000000;stroke-width:1"
         d="m 312.2,73.6 h -26.97 v 2.5 h -25.1 v -2.5 h -26.92 v 2.5 h -25.1 v -2.5 h -26.92 v 2.5 h -25.1 v -2.5 h -26.92 v 2.5 h -25.1 V 73.6 H 77.1"
         id="path23" />
      <path
         style="fill:none;stroke:#000000;stroke-width:1"
         d="M 77.1,73.6 V 51 h 2.5 V 26.1 H 77.1 V 3.5"
         id="path24" />
    </g>
    <rect
       style="fill:none;stroke:#000000;stroke-width:0.3;stroke-dasharray:none"
       id="rect24"
       width="8.6999998"
       height="13.7"
       x="346.35489"
       y="423.86166" />
    <path
       style="fill:none;stroke:#000000;stroke-width:0.3;stroke-dasharray:none"
       id="path26"
       sodipodi:type="arc"
       sodipodi:cx="350.7049"
       sodipodi:cy="132.0284"
       sodipodi:rx="1.8499994"
       sodipodi:ry="1.8499984"
       sodipodi:start="0.017453293"
       sodipodi:end="6.2831853"
       sodipodi:open="true"
       sodipodi:arc-type="arc"
       d="m 352.55461,132.06068 a 1.8499994,1.8499984 0 0 1 -1.87393,1.81756 1.8499994,1.8499984 0 0 1 -1.82571,-1.86599 1.8499994,1.8499984 0 0 1 1.858,-1.83383 1.8499994,1.8499984 0 0 1 1.84192,1.84998" />
    <path
       style="fill:none;stroke:#000000;stroke-width:0.3;stroke-dasharray:none"
       id="path27"
       sodipodi:type="arc"
       sodipodi:cx="350.7049"
       sodipodi:cy="156.35132"
       sodipodi:rx="1.8499994"
       sodipodi:ry="1.8499984"
       sodipodi:start="0.017453293"
       sodipodi:end="6.2831853"
       sodipodi:open="true"
       sodipodi:arc-type="arc"
       d="m 352.55461,156.38361 a 1.8499994,1.8499984 0 0 1 -1.87393,1.81755 1.8499994,1.8499984 0 0 1 -1.82571,-1.86599 1.8499994,1.8499984 0 0 1 1.858,-1.83383 1.8499994,1.8499984 0 0 1 1.84192,1.84998" />
    <path
       style="fill:none;stroke:#000000;stroke-width:0.3;stroke-dasharray:none"
       id="path28"
       sodipodi:type="arc"
       sodipodi:cx="144.18987"
       sodipodi:cy="-362.86636"
       sodipodi:rx="1.8499994"
       sodipodi:ry="1.8499984"
       sodipodi:start="0.017453293"
       sodipodi:end="6.2831853"
       sodipodi:open="true"
       sodipodi:arc-type="arc"
       d="m 146.03958,-362.83408 a 1.8499994,1.8499984 0 0 1 -1.87393,1.81756 1.8499994,1.8499984 0 0 1 -1.82571,-1.86599 1.8499994,1.8499984 0 0 1 1.858,-1.83383 1.8499994,1.8499984 0 0 1 1.84192,1.84998"
       transform="rotate(90)" />
    <path
       style="fill:none;stroke:#000000;stroke-width:0.3;stroke-dasharray:none"
       id="path29"
       sodipodi:type="arc"
       sodipodi:cx="144.18987"
       sodipodi:cy="-338.54343"
       sodipodi:rx="1.8499994"
       sodipodi:ry="1.8499984"
       sodipodi:start="0.017453293"
       sodipodi:end="6.2831853"
       sodipodi:open="true"
       sodipodi:arc-type="arc"
       d="m 146.03958,-338.51114 a 1.8499994,1.8499984 0 0 1 -1.87393,1.81755 1.8499994,1.8499984 0 0 1 -1.82571,-1.86598 1.8499994,1.8499984 0 0 1 1.858,-1.83384 1.8499994,1.8499984 0 0 1 1.84192,1.84998"
       transform="rotate(90)" />
    <path
       style="fill:none;stroke:#000000;stroke-width:0.3;stroke-dasharray:none"
       id="path30"
       sodipodi:type="arc"
       sodipodi:cx="146.02818"
       sodipodi:cy="341.52374"
       sodipodi:rx="1.8499994"
       sodipodi:ry="1.8499984"
       sodipodi:start="0.017453293"
       sodipodi:end="6.2831853"
       sodipodi:open="true"
       sodipodi:arc-type="arc"
       d="m 147.8779,341.55603 a 1.8499994,1.8499984 0 0 1 -1.87393,1.81755 1.8499994,1.8499984 0 0 1 -1.82572,-1.86598 1.8499994,1.8499984 0 0 1 1.85801,-1.83384 1.8499994,1.8499984 0 0 1 1.84192,1.84998"
       transform="rotate(-45)" />
    <path
       style="fill:none;stroke:#000000;stroke-width:0.3;stroke-dasharray:none"
       id="path31"
       sodipodi:type="arc"
       sodipodi:cx="146.02818"
       sodipodi:cy="358.36313"
       sodipodi:rx="1.8499994"
       sodipodi:ry="1.8499984"
       sodipodi:start="0.017453293"
       sodipodi:end="6.2831853"
       sodipodi:open="true"
       sodipodi:arc-type="arc"
       d="m 147.8779,358.39542 a 1.8499994,1.8499984 0 0 1 -1.87393,1.81755 1.8499994,1.8499984 0 0 1 -1.82572,-1.86599 1.8499994,1.8499984 0 0 1 1.85801,-1.83383 1.8499994,1.8499984 0 0 1 1.84192,1.84998"
       transform="rotate(-45)" />
    <path
       style="fill:none;stroke:#000000;stroke-width:0.3;stroke-dasharray:none"
       id="path32"
       sodipodi:type="arc"
       sodipodi:cx="349.94345"
       sodipodi:cy="-154.44789"
       sodipodi:rx="1.8499994"
       sodipodi:ry="1.8499984"
       sodipodi:start="0.017453293"
       sodipodi:end="6.2831853"
       sodipodi:open="true"
       sodipodi:arc-type="arc"
       d="m 351.79317,-154.4156 a 1.8499994,1.8499984 0 0 1 -1.87393,1.81755 1.8499994,1.8499984 0 0 1 -1.82572,-1.86599 1.8499994,1.8499984 0 0 1 1.858,-1.83383 1.8499994,1.8499984 0 0 1 1.84193,1.84998"
       transform="rotate(45)" />
    <path
       style="fill:none;stroke:#000000;stroke-width:0.3;stroke-dasharray:none"
       id="path33"
       sodipodi:type="arc"
       sodipodi:cx="349.94345"
       sodipodi:cy="-137.60847"
       sodipodi:rx="1.8499994"
       sodipodi:ry="1.8499984"
       sodipodi:start="0.017453293"
       sodipodi:end="6.2831853"
       sodipodi:open="true"
       sodipodi:arc-type="arc"
       d="m 351.79317,-137.57619 a 1.8499994,1.8499984 0 0 1 -1.87393,1.81756 1.8499994,1.8499984 0 0 1 -1.82572,-1.86599 1.8499994,1.8499984 0 0 1 1.858,-1.83384 1.8499994,1.8499984 0 0 1 1.84193,1.84999"
       transform="rotate(45)" />
    <path
       style="fill:none;stroke:#000000;stroke-width:0.3;stroke-dasharray:none"
       id="path34"
       sodipodi:type="arc"
       sodipodi:cx="146.01408"
       sodipodi:cy="349.93066"
       sodipodi:rx="1.8499994"
       sodipodi:ry="1.8499984"
       sodipodi:start="0.017453293"
       sodipodi:end="6.2831853"
       sodipodi:open="true"
       sodipodi:arc-type="arc"
       d="m 147.8638,349.96295 a 1.8499994,1.8499984 0 0 1 -1.87393,1.81755 1.8499994,1.8499984 0 0 1 -1.82572,-1.86598 1.8499994,1.8499984 0 0 1 1.85801,-1.83384 1.8499994,1.8499984 0 0 1 1.84192,1.84998"
       transform="rotate(-45)" />
  </g>
</svg>
