<?xml version="1.0" encoding="UTF-8" standalone="no"?>
<svg
   height="365.30mm"
   viewBox="0.0 0.0 321.90 365.30"
   width="321.90mm"
   version="1.1"
   id="svg7"
   sodipodi:docname="Kassi.svg"
   inkscape:version="1.4 (86a8ad7, 2024-10-11)"
   xmlns:inkscape="http://www.inkscape.org/namespaces/inkscape"
   xmlns:sodipodi="http://sodipodi.sourceforge.net/DTD/sodipodi-0.dtd"
   xmlns="http://www.w3.org/2000/svg"
   xmlns:svg="http://www.w3.org/2000/svg"
   xmlns:rdf="http://www.w3.org/1999/02/22-rdf-syntax-ns#"
   xmlns:cc="http://creativecommons.org/ns#"
   xmlns:dc="http://purl.org/dc/elements/1.1/">
  <defs
     id="defs7" />
  <sodipodi:namedview
     id="namedview7"
     pagecolor="#ffffff"
     bordercolor="#111111"
     borderopacity="1"
     inkscape:showpageshadow="0"
     inkscape:pageopacity="0"
     inkscape:pagecheckerboard="1"
     inkscape:deskcolor="#d1d1d1"
     inkscape:document-units="mm"
     showgrid="false"
     inkscape:zoom="1.6532227"
     inkscape:cx="452.75208"
     inkscape:cy="165.43446"
     inkscape:window-width="1920"
     inkscape:window-height="1009"
     inkscape:window-x="1912"
     inkscape:window-y="-8"
     inkscape:window-maximized="1"
     inkscape:current-layer="p-2" />
  <!--
ClosedBox - Fully closed box


This box is more of a building block than a finished item.
Use a vector graphics program (like Inkscape) to add holes or adjust the base
plate.

See BasedBox for variant with a base.


Created with Boxes.py (https://boxes.hackerspace-bamberg.de/)
Creation date: 2025-12-17 08:56:39
Command line (remove spaces between dashes): boxes ClosedBox - -FingerJoint_finger=4.0 - -FingerJoint_space=4.0 - -x=150 - -y=150 - -h=90 - -spacing=0.5
Url: https://boxes.hackerspace-bamberg.de/ClosedBox?FingerJoint_style=rectangular&FingerJoint_surroundingspaces=2.0&FingerJoint_bottom_lip=0.0&FingerJoint_edge_width=1.0&FingerJoint_extra_length=0.0&FingerJoint_finger=4.0&FingerJoint_play=0.0&FingerJoint_space=4.0&FingerJoint_width=1.0&x=150&y=150&h=90&outside=0&outside=1&thickness=3.0&format=svg&tabs=0.0&qr_code=0&debug=0&labels=0&labels=1&reference=100.0&inner_corners=loop&burn=0.1&spacing=0.5&language=en&render=2
Url short: https://boxes.hackerspace-bamberg.de/ClosedBox?FingerJoint_finger=4.0&FingerJoint_space=4.0&x=150&y=150&h=90&spacing=0.5
SettingsUrl: https://boxes.hackerspace-bamberg.de/ClosedBox?FingerJoint_style=rectangular&FingerJoint_surroundingspaces=2.0&FingerJoint_bottom_lip=0.0&FingerJoint_edge_width=1.0&FingerJoint_extra_length=0.0&FingerJoint_finger=4.0&FingerJoint_play=0.0&FingerJoint_space=4.0&FingerJoint_width=1.0&x=150&y=150&h=90&outside=0&outside=1&thickness=3.0&format=svg&tabs=0.0&qr_code=0&debug=0&labels=0&labels=1&reference=100.0&inner_corners=loop&burn=0.1&spacing=0.5&language=en&render=2
SettingsUrl short: https://boxes.hackerspace-bamberg.de/ClosedBox?FingerJoint_finger=4.0&FingerJoint_space=4.0&x=150&y=150&h=90&spacing=0.5
-->
  <title
     id="title1">ClosedBox</title>
  <metadata
     id="metadata1">
    <rdf:RDF>
      <cc:Work>
        <dc:title>ClosedBox</dc:title>
        <dc:date>2025-12-17 08:56:39</dc:date>
        <dc:source>https://boxes.hackerspace-bamberg.de/ClosedBox?FingerJoint_style=rectangular&amp;FingerJoint_surroundingspaces=2.0&amp;FingerJoint_bottom_lip=0.0&amp;FingerJoint_edge_width=1.0&amp;FingerJoint_extra_length=0.0&amp;FingerJoint_finger=4.0&amp;FingerJoint_play=0.0&amp;FingerJoint_space=4.0&amp;FingerJoint_width=1.0&amp;x=150&amp;y=150&amp;h=90&amp;outside=0&amp;outside=1&amp;thickness=3.0&amp;format=svg&amp;tabs=0.0&amp;qr_code=0&amp;debug=0&amp;labels=0&amp;labels=1&amp;reference=100.0&amp;inner_corners=loop&amp;burn=0.1&amp;spacing=0.5&amp;language=en&amp;render=2</dc:source>
        <dc:source>https://boxes.hackerspace-bamberg.de/ClosedBox?FingerJoint_finger=4.0&amp;FingerJoint_space=4.0&amp;x=150&amp;y=150&amp;h=90&amp;spacing=0.5</dc:source>
        <dc:description>Fully closed box

This box is more of a building block than a finished item.
Use a vector graphics program (like Inkscape) to add holes or adjust the base
plate.

See BasedBox for variant with a base.

Created with Boxes.py (https://boxes.hackerspace-bamberg.de/)
Command line: boxes ClosedBox --FingerJoint_style=rectangular --FingerJoint_surroundingspaces=2.0 --FingerJoint_bottom_lip=0.0 --FingerJoint_edge_width=1.0 --FingerJoint_extra_length=0.0 --FingerJoint_finger=4.0 --FingerJoint_play=0.0 --FingerJoint_space=4.0 --FingerJoint_width=1.0 --x=150 --y=150 --h=90 --outside=0 --outside=1 --thickness=3.0 --format=svg --tabs=0.0 --qr_code=0 --debug=0 --labels=0 --labels=1 --reference=100.0 --inner_corners=loop --burn=0.1 --spacing=0.5
Command line short: boxes ClosedBox --FingerJoint_finger=4.0 --FingerJoint_space=4.0 --x=150 --y=150 --h=90 --spacing=0.5
Url: https://boxes.hackerspace-bamberg.de/ClosedBox?FingerJoint_style=rectangular&amp;FingerJoint_surroundingspaces=2.0&amp;FingerJoint_bottom_lip=0.0&amp;FingerJoint_edge_width=1.0&amp;FingerJoint_extra_length=0.0&amp;FingerJoint_finger=4.0&amp;FingerJoint_play=0.0&amp;FingerJoint_space=4.0&amp;FingerJoint_width=1.0&amp;x=150&amp;y=150&amp;h=90&amp;outside=0&amp;outside=1&amp;thickness=3.0&amp;format=svg&amp;tabs=0.0&amp;qr_code=0&amp;debug=0&amp;labels=0&amp;labels=1&amp;reference=100.0&amp;inner_corners=loop&amp;burn=0.1&amp;spacing=0.5&amp;language=en&amp;render=2
Url short: https://boxes.hackerspace-bamberg.de/ClosedBox?FingerJoint_finger=4.0&amp;FingerJoint_space=4.0&amp;x=150&amp;y=150&amp;h=90&amp;spacing=0.5
SettingsUrl: https://boxes.hackerspace-bamberg.de/ClosedBox?FingerJoint_style=rectangular&amp;FingerJoint_surroundingspaces=2.0&amp;FingerJoint_bottom_lip=0.0&amp;FingerJoint_edge_width=1.0&amp;FingerJoint_extra_length=0.0&amp;FingerJoint_finger=4.0&amp;FingerJoint_play=0.0&amp;FingerJoint_space=4.0&amp;FingerJoint_width=1.0&amp;x=150&amp;y=150&amp;h=90&amp;outside=0&amp;outside=1&amp;thickness=3.0&amp;format=svg&amp;tabs=0.0&amp;qr_code=0&amp;debug=0&amp;labels=0&amp;labels=1&amp;reference=100.0&amp;inner_corners=loop&amp;burn=0.1&amp;spacing=0.5&amp;language=en&amp;render=2
SettingsUrl short: https://boxes.hackerspace-bamberg.de/ClosedBox?FingerJoint_finger=4.0&amp;FingerJoint_space=4.0&amp;x=150&amp;y=150&amp;h=90&amp;spacing=0.5
</dc:description>
      </cc:Work>
    </rdf:RDF>
  </metadata>
  <g
     id="p-0"
     style="fill:none;stroke-linecap:round;stroke-linejoin:round;">
    <path
       d="M 10.100 355.300 H 110.100 V 345.300 H 10.100 V 355.300 Z"
       stroke="rgb(0,0,0)"
       stroke-width="0.20"
       id="path1" />
    <text
       dominant-baseline="hanging"
       font-size="6px"
       style="font-family: sans-serif ; font-weight: normal; font-style: normal; fill: rgb(255,0,0)"
       text-anchor="middle"
       transform="matrix( 1.000 0.000 0.000 1.000 60.100 347.300 )"
       id="text1">100.0mm, burn:0.10mm</text>
  </g>
  <g
     id="p-1"
     style="fill:none;stroke-linecap:round;stroke-linejoin:round;">
    <path
       d="M 13.100 343.600 H 31.100 C 31.155 343.600 31.200 343.555 31.200 343.500 V 340.600 C 31.200 340.500 31.100 340.600 31.200 340.600 H 43.000 C 43.100 340.600 43.000 340.500 43.000 340.600 V 343.500 C 43.000 343.555 43.045 343.600 43.100 343.600 H 55.100 C 55.155 343.600 55.200 343.555 55.200 343.500 V 340.600 C 55.200 340.500 55.100 340.600 55.200 340.600 H 67.000 C 67.100 340.600 67.000 340.500 67.000 340.600 V 343.500 C 67.000 343.555 67.045 343.600 67.100 343.600 H 79.100 C 79.155 343.600 79.200 343.555 79.200 343.500 V 340.600 C 79.200 340.500 79.100 340.600 79.200 340.600 H 91.000 C 91.100 340.600 91.000 340.500 91.000 340.600 V 343.500 C 91.000 343.555 91.045 343.600 91.100 343.600 H 103.100 C 103.155 343.600 103.200 343.555 103.200 343.500 V 340.600 C 103.200 340.500 103.100 340.600 103.200 340.600 H 115.000 C 115.100 340.600 115.000 340.500 115.000 340.600 V 343.500 C 115.000 343.555 115.045 343.600 115.100 343.600 H 127.100 C 127.155 343.600 127.200 343.555 127.200 343.500 V 340.600 C 127.200 340.500 127.100 340.600 127.200 340.600 H 139.000 C 139.100 340.600 139.000 340.500 139.000 340.600 V 343.500 C 139.000 343.555 139.045 343.600 139.100 343.600 H 157.100 H 160.100 C 160.155 343.600 160.200 343.555 160.200 343.500 V 340.500 V 328.500 C 160.200 328.445 160.155 328.400 160.100 328.400 H 157.200 C 157.100 328.400 157.200 328.500 157.200 328.400 V 316.600 C 157.200 316.500 157.100 316.600 157.200 316.600 H 160.100 C 160.155 316.600 160.200 316.555 160.200 316.500 V 304.500 C 160.200 304.445 160.155 304.400 160.100 304.400 H 157.200 C 157.100 304.400 157.200 304.500 157.200 304.400 V 292.600 C 157.200 292.500 157.100 292.600 157.200 292.600 H 160.100 C 160.155 292.600 160.200 292.555 160.200 292.500 V 280.500 C 160.200 280.445 160.155 280.400 160.100 280.400 H 157.200 C 157.100 280.400 157.200 280.500 157.200 280.400 V 268.600 C 157.200 268.500 157.100 268.600 157.200 268.600 H 160.100 C 160.155 268.600 160.200 268.555 160.200 268.500 V 256.500 V 253.500 C 160.200 253.445 160.155 253.400 160.100 253.400 H 157.100 H 139.100 C 139.045 253.400 139.000 253.445 139.000 253.500 V 256.400 C 139.000 256.500 139.100 256.400 139.000 256.400 H 127.200 C 127.100 256.400 127.200 256.500 127.200 256.400 V 253.500 C 127.200 253.445 127.155 253.400 127.100 253.400 H 115.100 C 115.045 253.400 115.000 253.445 115.000 253.500 V 256.400 C 115.000 256.500 115.100 256.400 115.000 256.400 H 103.200 C 103.100 256.400 103.200 256.500 103.200 256.400 V 253.500 C 103.200 253.445 103.155 253.400 103.100 253.400 H 91.100 C 91.045 253.400 91.000 253.445 91.000 253.500 V 256.400 C 91.000 256.500 91.100 256.400 91.000 256.400 H 79.200 C 79.100 256.400 79.200 256.500 79.200 256.400 V 253.500 C 79.200 253.445 79.155 253.400 79.100 253.400 H 67.100 C 67.045 253.400 67.000 253.445 67.000 253.500 V 256.400 C 67.000 256.500 67.100 256.400 67.000 256.400 H 55.200 C 55.100 256.400 55.200 256.500 55.200 256.400 V 253.500 C 55.200 253.445 55.155 253.400 55.100 253.400 H 43.100 C 43.045 253.400 43.000 253.445 43.000 253.500 V 256.400 C 43.000 256.500 43.100 256.400 43.000 256.400 H 31.200 C 31.100 256.400 31.200 256.500 31.200 256.400 V 253.500 C 31.200 253.445 31.155 253.400 31.100 253.400 H 13.100 H 10.100 C 10.045 253.400 10.000 253.445 10.000 253.500 V 256.500 V 268.500 C 10.000 268.555 10.045 268.600 10.100 268.600 H 13.000 C 13.100 268.600 13.000 268.500 13.000 268.600 V 280.400 C 13.000 280.500 13.100 280.400 13.000 280.400 H 10.100 C 10.045 280.400 10.000 280.445 10.000 280.500 V 292.500 C 10.000 292.555 10.045 292.600 10.100 292.600 H 13.000 C 13.100 292.600 13.000 292.500 13.000 292.600 V 304.400 C 13.000 304.500 13.100 304.400 13.000 304.400 H 10.100 C 10.045 304.400 10.000 304.445 10.000 304.500 V 316.500 C 10.000 316.555 10.045 316.600 10.100 316.600 H 13.000 C 13.100 316.600 13.000 316.500 13.000 316.600 V 328.400 C 13.000 328.500 13.100 328.400 13.000 328.400 H 10.100 C 10.045 328.400 10.000 328.445 10.000 328.500 V 340.500 V 343.500 C 10.000 343.555 10.045 343.600 10.100 343.600 H 13.100"
       stroke="rgb(0,0,0)"
       stroke-width="0.20"
       id="path2" />
  </g>
  <g
     id="p-2"
     style="fill:none;stroke-linecap:round;stroke-linejoin:round;">
    <path
       d="M 164.800 343.600 H 182.800 C 182.855 343.600 182.900 343.555 182.900 343.500 V 340.600 C 182.900 340.500 182.800 340.600 182.900 340.600 H 194.700 C 194.800 340.600 194.700 340.500 194.700 340.600 V 343.500 C 194.700 343.555 194.745 343.600 194.800 343.600 H 206.800 C 206.855 343.600 206.900 343.555 206.900 343.500 V 340.600 C 206.900 340.500 206.800 340.600 206.900 340.600 H 218.700 C 218.800 340.600 218.700 340.500 218.700 340.600 V 343.500 C 218.700 343.555 218.745 343.600 218.800 343.600 H 230.800 C 230.855 343.600 230.900 343.555 230.900 343.500 V 340.600 C 230.900 340.500 230.800 340.600 230.900 340.600 H 242.700 C 242.800 340.600 242.700 340.500 242.700 340.600 V 343.500 C 242.700 343.555 242.745 343.600 242.800 343.600 H 254.800 C 254.855 343.600 254.900 343.555 254.900 343.500 V 340.600 C 254.900 340.500 254.800 340.600 254.900 340.600 H 266.700 C 266.800 340.600 266.700 340.500 266.700 340.600 V 343.500 C 266.700 343.555 266.745 343.600 266.800 343.600 H 278.800 C 278.855 343.600 278.900 343.555 278.900 343.500 V 340.600 C 278.900 340.500 278.800 340.600 278.900 340.600 H 290.700 C 290.800 340.600 290.700 340.500 290.700 340.600 V 343.500 C 290.700 343.555 290.745 343.600 290.800 343.600 H 308.800 C 308.855 343.600 308.900 343.555 308.900 343.500 V 340.500 V 328.600 C 308.900 328.500 308.800 328.600 308.900 328.600 H 311.800 C 311.855 328.600 311.900 328.555 311.900 328.500 V 316.500 C 311.900 316.445 311.855 316.400 311.800 316.400 H 308.900 C 308.800 316.400 308.900 316.500 308.900 316.400 V 304.600 C 308.900 304.500 308.800 304.600 308.900 304.600 H 311.800 C 311.855 304.600 311.900 304.555 311.900 304.500 V 292.500 C 311.900 292.445 311.855 292.400 311.800 292.400 H 308.900 C 308.800 292.400 308.900 292.500 308.900 292.400 V 280.600 C 308.900 280.500 308.800 280.600 308.900 280.600 H 311.800 C 311.855 280.600 311.900 280.555 311.900 280.500 V 268.500 C 311.900 268.445 311.855 268.400 311.800 268.400 H 308.900 C 308.800 268.400 308.900 268.500 308.900 268.400 V 256.500 V 253.500 C 308.900 253.445 308.855 253.400 308.800 253.400 H 290.800 C 290.745 253.400 290.700 253.445 290.700 253.500 V 256.400 C 290.700 256.500 290.800 256.400 290.700 256.400 H 278.900 C 278.800 256.400 278.900 256.500 278.900 256.400 V 253.500 C 278.900 253.445 278.855 253.400 278.800 253.400 H 266.800 C 266.745 253.400 266.700 253.445 266.700 253.500 V 256.400 C 266.700 256.500 266.800 256.400 266.700 256.400 H 254.900 C 254.800 256.400 254.900 256.500 254.900 256.400 V 253.500 C 254.900 253.445 254.855 253.400 254.800 253.400 H 242.800 C 242.745 253.400 242.700 253.445 242.700 253.500 V 256.400 C 242.700 256.500 242.800 256.400 242.700 256.400 H 230.900 C 230.800 256.400 230.900 256.500 230.900 256.400 V 253.500 C 230.900 253.445 230.855 253.400 230.800 253.400 H 218.800 C 218.745 253.400 218.700 253.445 218.700 253.500 V 256.400 C 218.700 256.500 218.800 256.400 218.700 256.400 H 206.900 C 206.800 256.400 206.900 256.500 206.900 256.400 V 253.500 C 206.900 253.445 206.855 253.400 206.800 253.400 H 194.800 C 194.745 253.400 194.700 253.445 194.700 253.500 V 256.400 C 194.700 256.500 194.800 256.400 194.700 256.400 H 182.900 C 182.800 256.400 182.900 256.500 182.900 256.400 V 253.500 C 182.900 253.445 182.855 253.400 182.800 253.400 H 164.800 C 164.745 253.400 164.700 253.445 164.700 253.500 V 256.500 V 268.400 C 164.700 268.500 164.800 268.400 164.700 268.400 H 161.800 C 161.745 268.400 161.700 268.445 161.700 268.500 V 280.500 C 161.700 280.555 161.745 280.600 161.800 280.600 H 164.700 C 164.800 280.600 164.700 280.500 164.700 280.600 V 292.400 C 164.700 292.500 164.800 292.400 164.700 292.400 H 161.800 C 161.745 292.400 161.700 292.445 161.700 292.500 V 304.500 C 161.700 304.555 161.745 304.600 161.800 304.600 H 164.700 C 164.800 304.600 164.700 304.500 164.700 304.600 V 316.400 C 164.700 316.500 164.800 316.400 164.700 316.400 H 161.800 C 161.745 316.400 161.700 316.445 161.700 316.500 V 328.500 C 161.700 328.555 161.745 328.600 161.800 328.600 H 164.700 C 164.800 328.600 164.700 328.500 164.700 328.600 V 340.500 V 343.500 C 164.700 343.555 164.745 343.600 164.800 343.600"
       stroke="rgb(0,0,0)"
       stroke-width="0.20"
       id="path3" />
  </g>
  <g
     id="p-3"
     style="fill:none;stroke-linecap:round;stroke-linejoin:round;">
    <path
       d="M 164.800 251.900 H 182.800 C 182.855 251.900 182.900 251.855 182.900 251.800 V 248.900 C 182.900 248.800 182.800 248.900 182.900 248.900 H 194.700 C 194.800 248.900 194.700 248.800 194.700 248.900 V 251.800 C 194.700 251.855 194.745 251.900 194.800 251.900 H 206.800 C 206.855 251.900 206.900 251.855 206.900 251.800 V 248.900 C 206.900 248.800 206.800 248.900 206.900 248.900 H 218.700 C 218.800 248.900 218.700 248.800 218.700 248.900 V 251.800 C 218.700 251.855 218.745 251.900 218.800 251.900 H 230.800 C 230.855 251.900 230.900 251.855 230.900 251.800 V 248.900 C 230.900 248.800 230.800 248.900 230.900 248.900 H 242.700 C 242.800 248.900 242.700 248.800 242.700 248.900 V 251.800 C 242.700 251.855 242.745 251.900 242.800 251.900 H 254.800 C 254.855 251.900 254.900 251.855 254.900 251.800 V 248.900 C 254.900 248.800 254.800 248.900 254.900 248.900 H 266.700 C 266.800 248.900 266.700 248.800 266.700 248.900 V 251.800 C 266.700 251.855 266.745 251.900 266.800 251.900 H 278.800 C 278.855 251.900 278.900 251.855 278.900 251.800 V 248.900 C 278.900 248.800 278.800 248.900 278.900 248.900 H 290.700 C 290.800 248.900 290.700 248.800 290.700 248.900 V 251.800 C 290.700 251.855 290.745 251.900 290.800 251.900 H 308.800 C 308.855 251.900 308.900 251.855 308.900 251.800 V 248.800 V 236.900 C 308.900 236.800 308.800 236.900 308.900 236.900 H 311.800 C 311.855 236.900 311.900 236.855 311.900 236.800 V 224.800 C 311.900 224.745 311.855 224.700 311.800 224.700 H 308.900 C 308.800 224.700 308.900 224.800 308.900 224.700 V 212.900 C 308.900 212.800 308.800 212.900 308.900 212.900 H 311.800 C 311.855 212.900 311.900 212.855 311.900 212.800 V 200.800 C 311.900 200.745 311.855 200.700 311.800 200.700 H 308.900 C 308.800 200.700 308.900 200.800 308.900 200.700 V 188.900 C 308.900 188.800 308.800 188.900 308.900 188.900 H 311.800 C 311.855 188.900 311.900 188.855 311.900 188.800 V 176.800 C 311.900 176.745 311.855 176.700 311.800 176.700 H 308.900 C 308.800 176.700 308.900 176.800 308.900 176.700 V 164.800 V 161.800 C 308.900 161.745 308.855 161.700 308.800 161.700 H 290.800 C 290.745 161.700 290.700 161.745 290.700 161.800 V 164.700 C 290.700 164.800 290.800 164.700 290.700 164.700 H 278.900 C 278.800 164.700 278.900 164.800 278.900 164.700 V 161.800 C 278.900 161.745 278.855 161.700 278.800 161.700 H 266.800 C 266.745 161.700 266.700 161.745 266.700 161.800 V 164.700 C 266.700 164.800 266.800 164.700 266.700 164.700 H 254.900 C 254.800 164.700 254.900 164.800 254.900 164.700 V 161.800 C 254.900 161.745 254.855 161.700 254.800 161.700 H 242.800 C 242.745 161.700 242.700 161.745 242.700 161.800 V 164.700 C 242.700 164.800 242.800 164.700 242.700 164.700 H 230.900 C 230.800 164.700 230.900 164.800 230.900 164.700 V 161.800 C 230.900 161.745 230.855 161.700 230.800 161.700 H 218.800 C 218.745 161.700 218.700 161.745 218.700 161.800 V 164.700 C 218.700 164.800 218.800 164.700 218.700 164.700 H 206.900 C 206.800 164.700 206.900 164.800 206.900 164.700 V 161.800 C 206.900 161.745 206.855 161.700 206.800 161.700 H 194.800 C 194.745 161.700 194.700 161.745 194.700 161.800 V 164.700 C 194.700 164.800 194.800 164.700 194.700 164.700 H 182.900 C 182.800 164.700 182.900 164.800 182.900 164.700 V 161.800 C 182.900 161.745 182.855 161.700 182.800 161.700 H 164.800 C 164.745 161.700 164.700 161.745 164.700 161.800 V 164.800 V 176.700 C 164.700 176.800 164.800 176.700 164.700 176.700 H 161.800 C 161.745 176.700 161.700 176.745 161.700 176.800 V 188.800 C 161.700 188.855 161.745 188.900 161.800 188.900 H 164.700 C 164.800 188.900 164.700 188.800 164.700 188.900 V 200.700 C 164.700 200.800 164.800 200.700 164.700 200.700 H 161.800 C 161.745 200.700 161.700 200.745 161.700 200.800 V 212.800 C 161.700 212.855 161.745 212.900 161.800 212.900 H 164.700 C 164.800 212.900 164.700 212.800 164.700 212.900 V 224.700 C 164.700 224.800 164.800 224.700 164.700 224.700 H 161.800 C 161.745 224.700 161.700 224.745 161.700 224.800 V 236.800 C 161.700 236.855 161.745 236.900 161.800 236.900 H 164.700 C 164.800 236.900 164.700 236.800 164.700 236.900 V 248.800 V 251.800 C 164.700 251.855 164.745 251.900 164.800 251.900"
       stroke="rgb(0,0,0)"
       stroke-width="0.20"
       id="path4" />
  </g>
  <g
     id="p-4"
     style="fill:none;stroke-linecap:round;stroke-linejoin:round;">
    <path
       d="M 13.100 251.900 H 31.100 C 31.155 251.900 31.200 251.855 31.200 251.800 V 248.900 C 31.200 248.800 31.100 248.900 31.200 248.900 H 43.000 C 43.100 248.900 43.000 248.800 43.000 248.900 V 251.800 C 43.000 251.855 43.045 251.900 43.100 251.900 H 55.100 C 55.155 251.900 55.200 251.855 55.200 251.800 V 248.900 C 55.200 248.800 55.100 248.900 55.200 248.900 H 67.000 C 67.100 248.900 67.000 248.800 67.000 248.900 V 251.800 C 67.000 251.855 67.045 251.900 67.100 251.900 H 79.100 C 79.155 251.900 79.200 251.855 79.200 251.800 V 248.900 C 79.200 248.800 79.100 248.900 79.200 248.900 H 91.000 C 91.100 248.900 91.000 248.800 91.000 248.900 V 251.800 C 91.000 251.855 91.045 251.900 91.100 251.900 H 103.100 C 103.155 251.900 103.200 251.855 103.200 251.800 V 248.900 C 103.200 248.800 103.100 248.900 103.200 248.900 H 115.000 C 115.100 248.900 115.000 248.800 115.000 248.900 V 251.800 C 115.000 251.855 115.045 251.900 115.100 251.900 H 127.100 C 127.155 251.900 127.200 251.855 127.200 251.800 V 248.900 C 127.200 248.800 127.100 248.900 127.200 248.900 H 139.000 C 139.100 248.900 139.000 248.800 139.000 248.900 V 251.800 C 139.000 251.855 139.045 251.900 139.100 251.900 H 157.100 H 160.100 C 160.155 251.900 160.200 251.855 160.200 251.800 V 248.800 V 236.800 C 160.200 236.745 160.155 236.700 160.100 236.700 H 157.200 C 157.100 236.700 157.200 236.800 157.200 236.700 V 224.900 C 157.200 224.800 157.100 224.900 157.200 224.900 H 160.100 C 160.155 224.900 160.200 224.855 160.200 224.800 V 212.800 C 160.200 212.745 160.155 212.700 160.100 212.700 H 157.200 C 157.100 212.700 157.200 212.800 157.200 212.700 V 200.900 C 157.200 200.800 157.100 200.900 157.200 200.900 H 160.100 C 160.155 200.900 160.200 200.855 160.200 200.800 V 188.800 C 160.200 188.745 160.155 188.700 160.100 188.700 H 157.200 C 157.100 188.700 157.200 188.800 157.200 188.700 V 176.900 C 157.200 176.800 157.100 176.900 157.200 176.900 H 160.100 C 160.155 176.900 160.200 176.855 160.200 176.800 V 164.800 V 161.800 C 160.200 161.745 160.155 161.700 160.100 161.700 H 157.100 H 139.100 C 139.045 161.700 139.000 161.745 139.000 161.800 V 164.700 C 139.000 164.800 139.100 164.700 139.000 164.700 H 127.200 C 127.100 164.700 127.200 164.800 127.200 164.700 V 161.800 C 127.200 161.745 127.155 161.700 127.100 161.700 H 115.100 C 115.045 161.700 115.000 161.745 115.000 161.800 V 164.700 C 115.000 164.800 115.100 164.700 115.000 164.700 H 103.200 C 103.100 164.700 103.200 164.800 103.200 164.700 V 161.800 C 103.200 161.745 103.155 161.700 103.100 161.700 H 91.100 C 91.045 161.700 91.000 161.745 91.000 161.800 V 164.700 C 91.000 164.800 91.100 164.700 91.000 164.700 H 79.200 C 79.100 164.700 79.200 164.800 79.200 164.700 V 161.800 C 79.200 161.745 79.155 161.700 79.100 161.700 H 67.100 C 67.045 161.700 67.000 161.745 67.000 161.800 V 164.700 C 67.000 164.800 67.100 164.700 67.000 164.700 H 55.200 C 55.100 164.700 55.200 164.800 55.200 164.700 V 161.800 C 55.200 161.745 55.155 161.700 55.100 161.700 H 43.100 C 43.045 161.700 43.000 161.745 43.000 161.800 V 164.700 C 43.000 164.800 43.100 164.700 43.000 164.700 H 31.200 C 31.100 164.700 31.200 164.800 31.200 164.700 V 161.800 C 31.200 161.745 31.155 161.700 31.100 161.700 H 13.100 H 10.100 C 10.045 161.700 10.000 161.745 10.000 161.800 V 164.800 V 176.800 C 10.000 176.855 10.045 176.900 10.100 176.900 H 13.000 C 13.100 176.900 13.000 176.800 13.000 176.900 V 188.700 C 13.000 188.800 13.100 188.700 13.000 188.700 H 10.100 C 10.045 188.700 10.000 188.745 10.000 188.800 V 200.800 C 10.000 200.855 10.045 200.900 10.100 200.900 H 13.000 C 13.100 200.900 13.000 200.800 13.000 200.900 V 212.700 C 13.000 212.800 13.100 212.700 13.000 212.700 H 10.100 C 10.045 212.700 10.000 212.745 10.000 212.800 V 224.800 C 10.000 224.855 10.045 224.900 10.100 224.900 H 13.000 C 13.100 224.900 13.000 224.800 13.000 224.900 V 236.700 C 13.000 236.800 13.100 236.700 13.000 236.700 H 10.100 C 10.045 236.700 10.000 236.745 10.000 236.800 V 248.800 V 251.800 C 10.000 251.855 10.045 251.900 10.100 251.900 H 13.100"
       stroke="rgb(0,0,0)"
       stroke-width="0.20"
       id="path5" />
  </g>
  <g
     id="p-5"
     style="fill:none;stroke-linecap:round;stroke-linejoin:round;">
    <path
       d="M 13.1,157.2 H 31 c 0.1,0 0,-0.1 0,0 v 2.9 c 0,0.055 0.045,0.1 0.1,0.1 h 12 c 0.055,0 0.1,-0.045 0.1,-0.1 v -2.9 c 0,-0.1 -0.1,0 0,0 H 55 c 0.1,0 0,-0.1 0,0 v 2.9 c 0,0.055 0.045,0.1 0.1,0.1 h 12 c 0.055,0 0.1,-0.045 0.1,-0.1 v -2.9 c 0,-0.1 -0.1,0 0,0 H 79 c 0.1,0 0,-0.1 0,0 v 2.9 c 0,0.055 0.045,0.1 0.1,0.1 h 12 c 0.055,0 0.1,-0.045 0.1,-0.1 v -2.9 c 0,-0.1 -0.1,0 0,0 H 103 c 0.1,0 0,-0.1 0,0 v 2.9 c 0,0.055 0.045,0.1 0.1,0.1 h 12 c 0.055,0 0.1,-0.045 0.1,-0.1 v -2.9 c 0,-0.1 -0.1,0 0,0 H 127 c 0.1,0 0,-0.1 0,0 v 2.9 c 0,0.055 0.045,0.1 0.1,0.1 h 12 c 0.055,0 0.1,-0.045 0.1,-0.1 v -2.9 c 0,-0.1 -0.1,0 0,0 h 17.9 c 0.055,0 0.1,-0.045 0.1,-0.1 v -17.9 c 0,-0.1 -0.1,0 0,0 h 2.9 c 0.055,0 0.1,-0.045 0.1,-0.1 v -12 c 0,-0.055 -0.045,-0.1 -0.1,-0.1 h -2.9 c -0.1,0 0,0.1 0,0 v -11.8 c 0,-0.1 -0.1,0 0,0 h 2.9 c 0.055,0 0.1,-0.045 0.1,-0.1 v -12 c 0,-0.055 -0.045,-0.1 -0.1,-0.1 h -2.9 c -0.1,0 0,0.1 0,0 V 91.2 c 0,-0.1 -0.1,0 0,0 h 2.9 c 0.055,0 0.1,-0.045 0.1,-0.1 v -12 c 0,-0.055 -0.045,-0.1 -0.1,-0.1 h -2.9 c -0.1,0 0,0.1 0,0 V 67.2 c 0,-0.1 -0.1,0 0,0 h 2.9 c 0.055,0 0.1,-0.045 0.1,-0.1 v -12 c 0,-0.055 -0.045,-0.1 -0.1,-0.1 h -2.9 c -0.1,0 0,0.1 0,0 V 43.2 c 0,-0.1 -0.1,0 0,0 h 2.9 c 0.055,0 0.1,-0.045 0.1,-0.1 v -12 c 0,-0.055 -0.045,-0.1 -0.1,-0.1 h -2.9 c -0.1,0 0,0.1 0,0 V 13.1 c 0,-0.055 -0.045,-0.1 -0.1,-0.1 h -17.9 c -0.1,0 0,0.1 0,0 v -2.9 c 0,-0.055 -0.045,-0.1 -0.1,-0.1 h -12 c -0.055,0 -0.1,0.045 -0.1,0.1 V 13 c 0,0.1 0.1,0 0,0 h -11.8 c -0.1,0 0,0.1 0,0 v -2.9 c 0,-0.055 -0.045,-0.1 -0.1,-0.1 h -12 c -0.055,0 -0.1,0.045 -0.1,0.1 V 13 c 0,0.1 0.1,0 0,0 H 91.2 c -0.1,0 0,0.1 0,0 V 10.1 C 91.2,10.045 91.155,10 91.1,10 h -12 C 79.045,10 79,10.045 79,10.1 V 13 c 0,0.1 0.1,0 0,0 H 67.2 c -0.1,0 0,0.1 0,0 v -2.9 c 0,-0.055 -0.06811,-0.05518 -0.1,-0.1 -3.91488,-5.5022524 -8.685336,-4.1938015 -12,0 -0.0341,0.04315 -0.1,0.045 -0.1,0.1 V 13 c 0,0.1 0.1,0 0,0 H 43.2 c -0.1,0 0,0.1 0,0 v -2.9 c 0,-0.055 -0.06618,-0.05663 -0.1,-0.1 -4,-5.130194 -8,-5.130194 -12,0 -0.03382,0.04337 -0.1,0.045 -0.1,0.1 V 13 c 0,0.1 0.1,0 0,0 H 13.1 C 13.045,13 13,13.045 13,13.1 V 31 c 0,0.1 0.1,0 0,0 h -2.9 c -0.055,0 0.04099,-0.03667 0,0 -4.7469953,4.246721 -4.7424226,8.280055 -0.1,12.1 0.04247,0.03495 0.045,0.1 0.1,0.1 H 13 c 0.1,0 0,-0.1 0,0 V 55 c 0,0.1 0.1,0 0,0 h -2.9 c -0.055,0 -0.057,0.06571 -0.1,0.1 -4.4811467,3.573224 -4.4811467,7.573224 0,12 0.03913,0.03865 0.045,0.1 0.1,0.1 H 13 c 0.1,0 0,-0.1 0,0 V 79 c 0,0.1 0.1,0 0,0 H 10.1 C 10.045,79 10,79.045 10,79.1 v 12 c 0,0.055 0.045,0.1 0.1,0.1 H 13 c 0.1,0 0,-0.1 0,0 V 103 c 0,0.1 0.1,0 0,0 h -2.9 c -0.055,0 -0.1,0.045 -0.1,0.1 v 12 c 0,0.055 0.045,0.1 0.1,0.1 H 13 c 0.1,0 0,-0.1 0,0 V 127 c 0,0.1 0.1,0 0,0 h -2.9 c -0.055,0 -0.1,0.045 -0.1,0.1 v 12 c 0,0.055 0.045,0.1 0.1,0.1 H 13 c 0.1,0 0,-0.1 0,0 v 17.9 c 0,0.055 0.045,0.1 0.1,0.1"
       stroke="#000000"
       stroke-width="0.2"
       id="path6"
       sodipodi:nodetypes="csssssssssssssssssssssssssssssssssssssssssssssssssssssssssssssssssssssssssssssssssssssssssssssssssssssssssssssssssssssssssssssssssssssssssssssssssssssssssssssssssssssssc" />
  </g>
  <g
     id="p-6"
     style="fill:none;stroke-linecap:round;stroke-linejoin:round;">
    <path
       d="M 164.800 157.200 H 182.700 C 182.800 157.200 182.700 157.100 182.700 157.200 V 160.100 C 182.700 160.155 182.745 160.200 182.800 160.200 H 194.800 C 194.855 160.200 194.900 160.155 194.900 160.100 V 157.200 C 194.900 157.100 194.800 157.200 194.900 157.200 H 206.700 C 206.800 157.200 206.700 157.100 206.700 157.200 V 160.100 C 206.700 160.155 206.745 160.200 206.800 160.200 H 218.800 C 218.855 160.200 218.900 160.155 218.900 160.100 V 157.200 C 218.900 157.100 218.800 157.200 218.900 157.200 H 230.700 C 230.800 157.200 230.700 157.100 230.700 157.200 V 160.100 C 230.700 160.155 230.745 160.200 230.800 160.200 H 242.800 C 242.855 160.200 242.900 160.155 242.900 160.100 V 157.200 C 242.900 157.100 242.800 157.200 242.900 157.200 H 254.700 C 254.800 157.200 254.700 157.100 254.700 157.200 V 160.100 C 254.700 160.155 254.745 160.200 254.800 160.200 H 266.800 C 266.855 160.200 266.900 160.155 266.900 160.100 V 157.200 C 266.900 157.100 266.800 157.200 266.900 157.200 H 278.700 C 278.800 157.200 278.700 157.100 278.700 157.200 V 160.100 C 278.700 160.155 278.745 160.200 278.800 160.200 H 290.800 C 290.855 160.200 290.900 160.155 290.900 160.100 V 157.200 C 290.900 157.100 290.800 157.200 290.900 157.200 H 308.800 C 308.855 157.200 308.900 157.155 308.900 157.100 V 139.200 C 308.900 139.100 308.800 139.200 308.900 139.200 H 311.800 C 311.855 139.200 311.900 139.155 311.900 139.100 V 127.100 C 311.900 127.045 311.855 127.000 311.800 127.000 H 308.900 C 308.800 127.000 308.900 127.100 308.900 127.000 V 115.200 C 308.900 115.100 308.800 115.200 308.900 115.200 H 311.800 C 311.855 115.200 311.900 115.155 311.900 115.100 V 103.100 C 311.900 103.045 311.855 103.000 311.800 103.000 H 308.900 C 308.800 103.000 308.900 103.100 308.900 103.000 V 91.200 C 308.900 91.100 308.800 91.200 308.900 91.200 H 311.800 C 311.855 91.200 311.900 91.155 311.900 91.100 V 79.100 C 311.900 79.045 311.855 79.000 311.800 79.000 H 308.900 C 308.800 79.000 308.900 79.100 308.900 79.000 V 67.200 C 308.900 67.100 308.800 67.200 308.900 67.200 H 311.800 C 311.855 67.200 311.900 67.155 311.900 67.100 V 55.100 C 311.900 55.045 311.855 55.000 311.800 55.000 H 308.900 C 308.800 55.000 308.900 55.100 308.900 55.000 V 43.200 C 308.900 43.100 308.800 43.200 308.900 43.200 H 311.800 C 311.855 43.200 311.900 43.155 311.900 43.100 V 31.100 C 311.900 31.045 311.855 31.000 311.800 31.000 H 308.900 C 308.800 31.000 308.900 31.100 308.900 31.000 V 13.100 C 308.900 13.045 308.855 13.000 308.800 13.000 H 290.900 C 290.800 13.000 290.900 13.100 290.900 13.000 V 10.100 C 290.900 10.045 290.855 10.000 290.800 10.000 H 278.800 C 278.745 10.000 278.700 10.045 278.700 10.100 V 13.000 C 278.700 13.100 278.800 13.000 278.700 13.000 H 266.900 C 266.800 13.000 266.900 13.100 266.900 13.000 V 10.100 C 266.900 10.045 266.855 10.000 266.800 10.000 H 254.800 C 254.745 10.000 254.700 10.045 254.700 10.100 V 13.000 C 254.700 13.100 254.800 13.000 254.700 13.000 H 242.900 C 242.800 13.000 242.900 13.100 242.900 13.000 V 10.100 C 242.900 10.045 242.855 10.000 242.800 10.000 H 230.800 C 230.745 10.000 230.700 10.045 230.700 10.100 V 13.000 C 230.700 13.100 230.800 13.000 230.700 13.000 H 218.900 C 218.800 13.000 218.900 13.100 218.900 13.000 V 10.100 C 218.900 10.045 218.855 10.000 218.800 10.000 H 206.800 C 206.745 10.000 206.700 10.045 206.700 10.100 V 13.000 C 206.700 13.100 206.800 13.000 206.700 13.000 H 194.900 C 194.800 13.000 194.900 13.100 194.900 13.000 V 10.100 C 194.900 10.045 194.855 10.000 194.800 10.000 H 182.800 C 182.745 10.000 182.700 10.045 182.700 10.100 V 13.000 C 182.700 13.100 182.800 13.000 182.700 13.000 H 164.800 C 164.745 13.000 164.700 13.045 164.700 13.100 V 31.000 C 164.700 31.100 164.800 31.000 164.700 31.000 H 161.800 C 161.745 31.000 161.700 31.045 161.700 31.100 V 43.100 C 161.700 43.155 161.745 43.200 161.800 43.200 H 164.700 C 164.800 43.200 164.700 43.100 164.700 43.200 V 55.000 C 164.700 55.100 164.800 55.000 164.700 55.000 H 161.800 C 161.745 55.000 161.700 55.045 161.700 55.100 V 67.100 C 161.700 67.155 161.745 67.200 161.800 67.200 H 164.700 C 164.800 67.200 164.700 67.100 164.700 67.200 V 79.000 C 164.700 79.100 164.800 79.000 164.700 79.000 H 161.800 C 161.745 79.000 161.700 79.045 161.700 79.100 V 91.100 C 161.700 91.155 161.745 91.200 161.800 91.200 H 164.700 C 164.800 91.200 164.700 91.100 164.700 91.200 V 103.000 C 164.700 103.100 164.800 103.000 164.700 103.000 H 161.800 C 161.745 103.000 161.700 103.045 161.700 103.100 V 115.100 C 161.700 115.155 161.745 115.200 161.800 115.200 H 164.700 C 164.800 115.200 164.700 115.100 164.700 115.200 V 127.000 C 164.700 127.100 164.800 127.000 164.700 127.000 H 161.800 C 161.745 127.000 161.700 127.045 161.700 127.100 V 139.100 C 161.700 139.155 161.745 139.200 161.800 139.200 H 164.700 C 164.800 139.200 164.700 139.100 164.700 139.200 V 157.100 C 164.700 157.155 164.745 157.200 164.800 157.200"
       stroke="rgb(0,0,0)"
       stroke-width="0.20"
       id="path7" />
  </g>
  <circle
     style="fill:none;stroke:#000106;stroke-width:0.334849;stroke-dasharray:none;stroke-opacity:1"
     id="path9"
     cx="84.99453"
     cy="85.099998"
     r="12.332576" />
</svg>
